# xmcd CD database file
#
# Track frame offsets:
#	150
#	25350
#	47432
#	67557
#	83587
#	106567
#	127970
#	147912
#	167557
#	188367
#	204692
#	223700
#
# Disc length: 3281 seconds
#
# Revision: 1
# Processed by: cddbd v1.5.1PL0 Copyright (c) Steve Scherf et al.
# Submitted via: CDex 1.40Release
#
DISCID=900ccf0c
DTITLE=Milva and James Last - Dein ist mein ganzes Herz
DYEAR=1994
DGENRE=
TTITLE0=Milva and James Last - Caruso
TTITLE1=Milva and James Last - Dein ist mein ganzes Herz
TTITLE2=Milva and James Last - Aranjuez
TTITLE3=Milva and James Last - Immer und ewig
TTITLE4=Milva and James Last - Les Pecheurs de Perles
TTITLE5=Milva and James Last - Vado Via
TTITLE6=Milva and James Last - Träumerei
TTITLE7=Milva and James Last - Il mio divino amore
TTITLE8=Milva and James Last - Nur ein Augenblick
TTITLE9=Milva and James Last - Er hat gesagt
TTITLE10=Milva and James Last - Deine Hände
TTITLE11=Milva and James Last - Ich habe die Liebe wie im Traum erlebt
EXTD=YEAR: 1994
EXTT0=
EXTT1=
EXTT2=
EXTT3=
EXTT4=
EXTT5=
EXTT6=
EXTT7=
EXTT8=
EXTT9=
EXTT10=
EXTT11=
PLAYORDER=
